<svg width="192" height="192" viewBox="0 0 192 192" xmlns="http://www.w3.org/2000/svg">
  <rect width="192" height="192" rx="24" fill="#10b981"/>
  <g transform="translate(32, 32)">
    <!-- Farm building -->
    <rect x="20" y="80" width="88" height="48" rx="4" fill="#ffffff" opacity="0.9"/>
    <rect x="24" y="84" width="80" height="8" fill="#10b981"/>
    <rect x="24" y="96" width="80" height="8" fill="#059669"/>
    <rect x="24" y="108" width="80" height="8" fill="#047857"/>
    
    <!-- Delivery truck -->
    <rect x="108" y="96" width="32" height="20" rx="2" fill="#ffffff"/>
    <rect x="112" y="100" width="24" height="12" fill="#10b981"/>
    <circle cx="118" cy="120" r="6" fill="#374151"/>
    <circle cx="130" cy="120" r="6" fill="#374151"/>
    
    <!-- Connection line -->
    <line x1="108" y1="106" x2="88" y2="106" stroke="#ffffff" stroke-width="3" opacity="0.8"/>
    
    <!-- Mobile device -->
    <rect x="40" y="20" width="48" height="32" rx="4" fill="#ffffff" opacity="0.9"/>
    <rect x="44" y="24" width="40" height="4" fill="#10b981"/>
    <rect x="44" y="32" width="32" height="2" fill="#6b7280"/>
    <rect x="44" y="36" width="24" height="2" fill="#6b7280"/>
    <rect x="44" y="40" width="36" height="2" fill="#6b7280"/>
    <rect x="44" y="44" width="20" height="2" fill="#6b7280"/>
  </g>
</svg>
